<svg width="353" height="101" viewBox="0 0 353 101" fill="none" xmlns="http://www.w3.org/2000/svg">
<rect width="353" height="101" rx="12" fill="#F6F6F8"/>
<rect x="20" y="23" width="313" height="36" rx="18" fill="#E9ECEF"/>
<path d="M52 81.1562C49.375 81.1562 47.8438 79.0469 47.8438 75.3438C47.8438 71.6719 49.4062 69.5312 52 69.5312C54.5938 69.5312 56.1562 71.6719 56.1562 75.3438C56.1562 79.0469 54.6094 81.1562 52 81.1562ZM52 79.6719C53.5312 79.6719 54.4375 78.1719 54.4375 75.3438C54.4375 72.5312 53.5156 70.9844 52 70.9844C50.4844 70.9844 49.5625 72.5312 49.5625 75.3438C49.5625 78.1719 50.4688 79.6719 52 79.6719Z" fill="#ADB5BD"/>
<path d="M165.484 78.7969V77.4062L170.484 69.6875H172.609V77.3438H174.156V78.7969H172.609V81H170.984V78.7969H165.484ZM167.297 77.3438H170.984V71.7344H170.859L167.297 77.25V77.3438ZM176.578 81.1094C175.969 81.1094 175.453 80.6094 175.469 80C175.453 79.3906 175.969 78.8906 176.578 78.8906C177.172 78.8906 177.688 79.3906 177.688 80C177.688 80.6094 177.172 81.1094 176.578 81.1094ZM183.297 81.1562C180.953 81.1562 179.281 79.8906 179.219 78.0469H180.969C181.031 79.0469 182.016 79.6719 183.281 79.6719C184.641 79.6719 185.641 78.9219 185.641 77.8281C185.641 76.7188 184.703 75.9062 183.094 75.9062H182.125V74.5H183.094C184.375 74.5 185.281 73.7812 185.281 72.7031C185.281 71.6719 184.516 70.9688 183.312 70.9688C182.172 70.9688 181.172 71.5938 181.125 72.625H179.469C179.516 70.7812 181.219 69.5312 183.328 69.5312C185.547 69.5312 186.953 70.9375 186.938 72.6094C186.953 73.8906 186.156 74.8281 184.938 75.125V75.2031C186.484 75.4219 187.375 76.4531 187.375 77.8906C187.375 79.7812 185.641 81.1562 183.297 81.1562Z" fill="#ADB5BD"/>
<rect x="20" y="23" width="313" height="36" rx="18" fill="#FF3131"/>
<path d="M285.453 35.4805H288.109L291.678 44.2129H291.828L295.397 35.4805H298.053V47.5H295.978V39.2324H295.862L292.525 47.4668H290.981L287.644 39.1992H287.544V47.5H285.453V35.4805ZM299.763 44.96C299.763 42.9346 301.44 42.3369 303.117 42.2373C303.739 42.1958 305.034 42.1211 305.424 42.1045V41.3906C305.424 40.4941 304.843 39.9795 303.797 39.9795C302.851 39.9795 302.27 40.4111 302.104 41.0586H300.062C300.211 39.5312 301.589 38.3691 303.847 38.3691C305.557 38.3691 307.533 39.0664 307.533 41.4736V47.5H305.507V46.2549H305.441C305.042 47.0186 304.196 47.6826 302.785 47.6826C301.058 47.6826 299.763 46.7363 299.763 44.96ZM301.805 44.9434C301.805 45.7236 302.436 46.1221 303.333 46.1221C304.611 46.1221 305.441 45.2754 305.441 44.2627V43.5156L303.449 43.6484C302.436 43.7314 301.805 44.1465 301.805 44.9434ZM311.251 38.4854L313.078 41.8223L314.937 38.4854H317.178L314.456 42.9844L317.228 47.5H315.003L313.078 44.2461L311.202 47.5H308.944L311.7 42.9844L309.01 38.4854H311.251Z" fill="white"/>
<path d="M287.525 78.7101C287.06 78.0004 285.088 74.7124 284.983 74.4581C284.878 74.2038 282.729 74.3528 282.51 75.2563C282.291 76.1598 285.64 80.6568 286.315 80.7267C286.991 80.7966 287.955 80.8059 288.813 80.0514C289.672 79.2969 294.371 69.8474 294.494 69.4786C294.617 69.1097 292.743 69.16 292.223 69.7319C291.704 70.3038 287.524 78.7101 287.524 78.7101H287.525Z" fill="#FF3131"/>
<path d="M303.906 81.1562C301.547 81.1562 299.828 79.7656 299.781 77.8125H302.062C302.109 78.7031 302.922 79.2969 303.906 79.2969C305.078 79.2969 305.906 78.4688 305.906 77.2969C305.906 76.0938 305.062 75.2656 303.875 75.25C303.031 75.25 302.438 75.5625 302.094 76.2031H299.969L300.578 69.6875H307.547V71.6094H302.516L302.203 74.4688H302.297C302.719 73.9062 303.562 73.5156 304.562 73.5156C306.641 73.5156 308.188 75.0625 308.188 77.2344C308.188 79.5156 306.453 81.1562 303.906 81.1562ZM310.797 81.1406C310.062 81.1406 309.469 80.5469 309.484 79.8281C309.469 79.1094 310.062 78.5312 310.797 78.5312C311.484 78.5312 312.094 79.1094 312.094 79.8281C312.094 80.5469 311.484 81.1406 310.797 81.1406ZM317.406 69.6875V81H315.047V71.9219H314.984L312.391 73.5469V71.4688L315.188 69.6875H317.406Z" fill="#FF3131"/>
</svg>
