<svg width="353" height="101" viewBox="0 0 353 101" fill="none" xmlns="http://www.w3.org/2000/svg">
<rect width="353" height="101" rx="12" fill="#F6F6F8"/>
<rect x="20" y="23" width="313" height="36" rx="18" fill="#DEE2E6"/>
<path d="M52 81.1562C49.375 81.1562 47.8438 79.0469 47.8438 75.3438C47.8438 71.6719 49.4062 69.5312 52 69.5312C54.5938 69.5312 56.1562 71.6719 56.1562 75.3438C56.1562 79.0469 54.6094 81.1562 52 81.1562ZM52 79.6719C53.5312 79.6719 54.4375 78.1719 54.4375 75.3438C54.4375 72.5312 53.5156 70.9844 52 70.9844C50.4844 70.9844 49.5625 72.5312 49.5625 75.3438C49.5625 78.1719 50.4688 79.6719 52 79.6719Z" fill="#ADB5BD"/>
<rect x="20" y="23" width="188.5" height="36" rx="18" fill="#FF8A00"/>
<path d="M162.986 35.4805H165.643L169.212 44.2129H169.361L172.931 35.4805H175.587V47.5H173.512V39.2324H173.396L170.059 47.4668H168.515L165.178 39.1992H165.078V47.5H162.986V35.4805ZM177.712 47.5V38.4854H179.837V47.5H177.712ZM178.791 37.207C178.127 37.207 177.562 36.6924 177.562 36.0449C177.562 35.4141 178.127 34.8994 178.791 34.8994C179.472 34.8994 180.02 35.4141 180.02 36.0449C180.02 36.6924 179.472 37.207 178.791 37.207ZM185.216 47.666C183.091 47.666 181.497 45.9727 181.497 43.001C181.497 39.9961 183.141 38.3691 185.232 38.3691C186.826 38.3691 187.49 39.3154 187.806 39.9629H187.889V35.4805H189.997V47.5H187.922V46.0723H187.806C187.474 46.7363 186.776 47.666 185.216 47.666ZM185.797 45.9229C187.158 45.9229 187.938 44.7441 187.938 42.9844C187.938 41.2412 187.175 40.0957 185.797 40.0957C184.386 40.0957 183.655 41.3076 183.655 42.9844C183.655 44.6943 184.402 45.9229 185.797 45.9229Z" fill="white"/>
<path d="M161.025 78.7101C160.56 78.0004 158.588 74.7124 158.483 74.4581C158.378 74.2038 156.229 74.3528 156.01 75.2563C155.791 76.1598 159.14 80.6568 159.815 80.7267C160.491 80.7966 161.455 80.8059 162.313 80.0514C163.172 79.2969 167.871 69.8474 167.994 69.4786C168.117 69.1097 166.243 69.16 165.723 69.7319C165.204 70.3038 161.024 78.7101 161.024 78.7101H161.025Z" fill="#FF8A00"/>
<path d="M172.875 79V77.1406L177.656 69.6875H180.609V77.1094H182.047V79H180.609V81H178.375V79H172.875ZM175.25 77.1094H178.406V72.2656H178.297L175.25 77.0156V77.1094ZM184.719 81.1406C183.984 81.1406 183.391 80.5469 183.406 79.8281C183.391 79.1094 183.984 78.5312 184.719 78.5312C185.406 78.5312 186.016 79.1094 186.016 79.8281C186.016 80.5469 185.406 81.1406 184.719 81.1406ZM191.688 81.1562C189.203 81.1562 187.422 79.7812 187.375 77.8125H189.75C189.797 78.6562 190.609 79.2188 191.703 79.2188C192.828 79.2188 193.641 78.5781 193.625 77.6719C193.641 76.75 192.812 76.0938 191.484 76.0938H190.438V74.3594H191.484C192.594 74.3594 193.375 73.75 193.375 72.8594C193.375 72 192.719 71.4062 191.719 71.4062C190.719 71.4062 189.891 71.9688 189.859 72.8281H187.609C187.641 70.875 189.406 69.5312 191.719 69.5312C194.078 69.5312 195.656 70.9219 195.641 72.7188C195.656 73.9844 194.766 74.8906 193.5 75.1094V75.2031C195.156 75.4062 196.078 76.4219 196.062 77.8281C196.078 79.7656 194.234 81.1562 191.688 81.1562Z" fill="#FF8A00"/>
<rect x="270" y="24" width="62" height="34" rx="17" stroke="#DEE2E6" stroke-width="2"/>
<path d="M285.453 35.4805H288.109L291.678 44.2129H291.828L295.397 35.4805H298.053V47.5H295.978V39.2324H295.862L292.525 47.4668H290.981L287.644 39.1992H287.544V47.5H285.453V35.4805ZM299.763 44.96C299.763 42.9346 301.44 42.3369 303.117 42.2373C303.739 42.1958 305.034 42.1211 305.424 42.1045V41.3906C305.424 40.4941 304.843 39.9795 303.797 39.9795C302.851 39.9795 302.27 40.4111 302.104 41.0586H300.062C300.211 39.5312 301.589 38.3691 303.847 38.3691C305.557 38.3691 307.533 39.0664 307.533 41.4736V47.5H305.507V46.2549H305.441C305.042 47.0186 304.196 47.6826 302.785 47.6826C301.058 47.6826 299.763 46.7363 299.763 44.96ZM301.805 44.9434C301.805 45.7236 302.436 46.1221 303.333 46.1221C304.611 46.1221 305.441 45.2754 305.441 44.2627V43.5156L303.449 43.6484C302.436 43.7314 301.805 44.1465 301.805 44.9434ZM311.251 38.4854L313.078 41.8223L314.937 38.4854H317.178L314.456 42.9844L317.228 47.5H315.003L313.078 44.2461L311.202 47.5H308.944L311.7 42.9844L309.01 38.4854H311.251Z" fill="#ADB5BD"/>
<path d="M296.188 81.1562C294.047 81.1562 292.438 79.8438 292.359 78.0469H294.031C294.125 79.0156 295.047 79.7188 296.188 79.7188C297.562 79.7188 298.547 78.7188 298.547 77.375C298.547 76 297.531 75 296.109 74.9844C295.203 74.9844 294.516 75.2812 294.125 75.9844H292.5L293.234 69.6875H299.641V71.1562H294.656L294.281 74.3281H294.391C294.859 73.875 295.656 73.5625 296.516 73.5625C298.641 73.5625 300.219 75.1406 300.219 77.3281C300.219 79.5625 298.547 81.1562 296.188 81.1562ZM302.75 81.1094C302.141 81.1094 301.625 80.6094 301.641 80C301.625 79.3906 302.141 78.8906 302.75 78.8906C303.344 78.8906 303.859 79.3906 303.859 80C303.859 80.6094 303.344 81.1094 302.75 81.1094ZM308.781 69.6875V81H307.047V71.4062H306.984L304.281 73.1719V71.5312L307.094 69.6875H308.781Z" fill="#ADB5BD"/>
</svg>
