<svg width="353" height="101" viewBox="0 0 353 101" fill="none" xmlns="http://www.w3.org/2000/svg">
<rect width="353" height="101" rx="12" fill="#F6F6F8"/>
<rect x="20" y="23" width="313" height="36" rx="18" fill="#DEE2E6"/>
<rect x="20" y="23" width="64" height="36" rx="18" fill="#70DD02"/>
<path d="M38.6606 35.4805H41.3169L44.8862 44.2129H45.0356L48.605 35.4805H51.2612V47.5H49.186V39.2324H49.0698L45.7329 47.4668H44.189L40.8521 39.1992H40.7524V47.5H38.6606V35.4805ZM53.3862 47.5V38.4854H55.5112V47.5H53.3862ZM54.4653 37.207C53.8013 37.207 53.2368 36.6924 53.2368 36.0449C53.2368 35.4141 53.8013 34.8994 54.4653 34.8994C55.146 34.8994 55.6938 35.4141 55.6938 36.0449C55.6938 36.6924 55.146 37.207 54.4653 37.207ZM59.6616 42.2207V47.5H57.5366V38.4854H59.562V40.0127H59.6782C60.0933 39 61.0063 38.3691 62.3511 38.3691C64.2271 38.3691 65.4556 39.5977 65.439 41.7559V47.5H63.3306V42.0879C63.3306 40.876 62.6831 40.1621 61.5708 40.1621C60.4419 40.1621 59.6616 40.9092 59.6616 42.2207Z" fill="white"/>
<path d="M52 81.1562C49.1719 81.1562 47.4531 79.0469 47.4531 75.3438C47.4531 71.6406 49.1719 69.5312 52 69.5312C54.8281 69.5312 56.5469 71.6562 56.5469 75.3438C56.5469 79.0625 54.8281 81.1562 52 81.1562ZM52 79.2188C53.3125 79.2188 54.1562 77.9531 54.1406 75.3438C54.1406 72.7656 53.3125 71.4531 52 71.4531C50.6875 71.4531 49.8594 72.7656 49.8594 75.3438C49.8438 77.9531 50.6875 79.2188 52 79.2188Z" fill="#70DD02"/>
<path d="M162.986 35.4805H165.643L169.212 44.2129H169.361L172.931 35.4805H175.587V47.5H173.512V39.2324H173.396L170.059 47.4668H168.515L165.178 39.1992H165.078V47.5H162.986V35.4805ZM177.712 47.5V38.4854H179.837V47.5H177.712ZM178.791 37.207C178.127 37.207 177.562 36.6924 177.562 36.0449C177.562 35.4141 178.127 34.8994 178.791 34.8994C179.472 34.8994 180.02 35.4141 180.02 36.0449C180.02 36.6924 179.472 37.207 178.791 37.207ZM185.216 47.666C183.091 47.666 181.497 45.9727 181.497 43.001C181.497 39.9961 183.141 38.3691 185.232 38.3691C186.826 38.3691 187.49 39.3154 187.806 39.9629H187.889V35.4805H189.997V47.5H187.922V46.0723H187.806C187.474 46.7363 186.776 47.666 185.216 47.666ZM185.797 45.9229C187.158 45.9229 187.938 44.7441 187.938 42.9844C187.938 41.2412 187.175 40.0957 185.797 40.0957C184.386 40.0957 183.655 41.3076 183.655 42.9844C183.655 44.6943 184.402 45.9229 185.797 45.9229Z" fill="#ADB5BD"/>
<path d="M165.484 78.7969V77.4062L170.484 69.6875H172.609V77.3438H174.156V78.7969H172.609V81H170.984V78.7969H165.484ZM167.297 77.3438H170.984V71.7344H170.859L167.297 77.25V77.3438ZM176.578 81.1094C175.969 81.1094 175.453 80.6094 175.469 80C175.453 79.3906 175.969 78.8906 176.578 78.8906C177.172 78.8906 177.688 79.3906 177.688 80C177.688 80.6094 177.172 81.1094 176.578 81.1094ZM183.297 81.1562C180.953 81.1562 179.281 79.8906 179.219 78.0469H180.969C181.031 79.0469 182.016 79.6719 183.281 79.6719C184.641 79.6719 185.641 78.9219 185.641 77.8281C185.641 76.7188 184.703 75.9062 183.094 75.9062H182.125V74.5H183.094C184.375 74.5 185.281 73.7812 185.281 72.7031C185.281 71.6719 184.516 70.9688 183.312 70.9688C182.172 70.9688 181.172 71.5938 181.125 72.625H179.469C179.516 70.7812 181.219 69.5312 183.328 69.5312C185.547 69.5312 186.953 70.9375 186.938 72.6094C186.953 73.8906 186.156 74.8281 184.938 75.125V75.2031C186.484 75.4219 187.375 76.4531 187.375 77.8906C187.375 79.7812 185.641 81.1562 183.297 81.1562Z" fill="#ADB5BD"/>
<path d="M285.453 35.4805H288.109L291.678 44.2129H291.828L295.397 35.4805H298.053V47.5H295.978V39.2324H295.862L292.525 47.4668H290.981L287.644 39.1992H287.544V47.5H285.453V35.4805ZM299.763 44.96C299.763 42.9346 301.44 42.3369 303.117 42.2373C303.739 42.1958 305.034 42.1211 305.424 42.1045V41.3906C305.424 40.4941 304.843 39.9795 303.797 39.9795C302.851 39.9795 302.27 40.4111 302.104 41.0586H300.062C300.211 39.5312 301.589 38.3691 303.847 38.3691C305.557 38.3691 307.533 39.0664 307.533 41.4736V47.5H305.507V46.2549H305.441C305.042 47.0186 304.196 47.6826 302.785 47.6826C301.058 47.6826 299.763 46.7363 299.763 44.96ZM301.805 44.9434C301.805 45.7236 302.436 46.1221 303.333 46.1221C304.611 46.1221 305.441 45.2754 305.441 44.2627V43.5156L303.449 43.6484C302.436 43.7314 301.805 44.1465 301.805 44.9434ZM311.251 38.4854L313.078 41.8223L314.937 38.4854H317.178L314.456 42.9844L317.228 47.5H315.003L313.078 44.2461L311.202 47.5H308.944L311.7 42.9844L309.01 38.4854H311.251Z" fill="#ADB5BD"/>
<path d="M296.188 81.1562C294.047 81.1562 292.438 79.8438 292.359 78.0469H294.031C294.125 79.0156 295.047 79.7188 296.188 79.7188C297.562 79.7188 298.547 78.7188 298.547 77.375C298.547 76 297.531 75 296.109 74.9844C295.203 74.9844 294.516 75.2812 294.125 75.9844H292.5L293.234 69.6875H299.641V71.1562H294.656L294.281 74.3281H294.391C294.859 73.875 295.656 73.5625 296.516 73.5625C298.641 73.5625 300.219 75.1406 300.219 77.3281C300.219 79.5625 298.547 81.1562 296.188 81.1562ZM302.75 81.1094C302.141 81.1094 301.625 80.6094 301.641 80C301.625 79.3906 302.141 78.8906 302.75 78.8906C303.344 78.8906 303.859 79.3906 303.859 80C303.859 80.6094 303.344 81.1094 302.75 81.1094ZM308.781 69.6875V81H307.047V71.4062H306.984L304.281 73.1719V71.5312L307.094 69.6875H308.781Z" fill="#ADB5BD"/>
</svg>
