<svg width="72" height="43" viewBox="0 0 72 43" fill="none" xmlns="http://www.w3.org/2000/svg">
<g id="&#236;&#130;&#172;&#236;&#167;&#132;">
<rect width="72" height="43" fill="white"/>
<path id="&#244;&#128;&#147;&#149;" d="M28.285 32.0234C27.0494 32.0234 26.1078 31.7033 25.4602 31.0632C24.8201 30.4305 24.5 29.5038 24.5 28.2831V14.7176C24.5 13.4969 24.8201 12.5702 25.4602 11.9375C26.1078 11.2974 27.0494 10.9773 28.285 10.9773H43.7262C44.9618 10.9773 45.8997 11.2974 46.5398 11.9375C47.1799 12.5702 47.5 13.4969 47.5 14.7176V28.2831C47.5 29.5038 47.1799 30.4305 46.5398 31.0632C45.8997 31.7033 44.9618 32.0234 43.7262 32.0234H28.285ZM28.3519 29.5448H43.6369C44.0835 29.5448 44.4259 29.4331 44.6641 29.2098C44.9023 28.9791 45.0214 28.6292 45.0214 28.1603V18.0001C45.0214 17.5386 44.9023 17.1962 44.6641 16.9729C44.4259 16.7422 44.0835 16.6268 43.6369 16.6268H28.3519C27.9128 16.6268 27.5741 16.7422 27.3359 16.9729C27.0977 17.1962 26.9786 17.5386 26.9786 18.0001V28.1603C26.9786 28.6292 27.0977 28.9791 27.3359 29.2098C27.5741 29.4331 27.9128 29.5448 28.3519 29.5448ZM30.2723 20.5569C30.0639 20.5569 29.889 20.4862 29.7476 20.3448C29.6061 20.2033 29.5354 20.0284 29.5354 19.82C29.5354 19.619 29.6061 19.4516 29.7476 19.3176C29.889 19.1836 30.0639 19.1166 30.2723 19.1166H41.7723C41.9807 19.1166 42.1519 19.1836 42.2859 19.3176C42.4273 19.4516 42.4981 19.619 42.4981 19.82C42.4981 20.0284 42.4273 20.2033 42.2859 20.3448C42.1519 20.4862 41.9807 20.5569 41.7723 20.5569H30.2723ZM30.2723 23.8059C30.0639 23.8059 29.889 23.7389 29.7476 23.605C29.6061 23.4635 29.5354 23.2961 29.5354 23.1025C29.5354 22.9016 29.6061 22.7304 29.7476 22.5889C29.889 22.4401 30.0639 22.3656 30.2723 22.3656H41.7723C41.9807 22.3656 42.1519 22.4401 42.2859 22.5889C42.4273 22.7304 42.4981 22.9016 42.4981 23.1025C42.4981 23.2961 42.4273 23.4635 42.2859 23.605C42.1519 23.7389 41.9807 23.8059 41.7723 23.8059H30.2723ZM30.2723 27.0661C30.0639 27.0661 29.889 26.9991 29.7476 26.8652C29.6061 26.7312 29.5354 26.56 29.5354 26.3516C29.5354 26.1506 29.6061 25.9794 29.7476 25.838C29.889 25.6966 30.0639 25.6258 30.2723 25.6258H37.4961C37.7045 25.6258 37.8757 25.6966 38.0097 25.838C38.1511 25.9794 38.2218 26.1506 38.2218 26.3516C38.2218 26.56 38.1511 26.7312 38.0097 26.8652C37.8757 26.9991 37.7045 27.0661 37.4961 27.0661H30.2723Z" fill="#CED4DA"/>
</g>
</svg>
