<svg width="73" height="43" viewBox="0 0 73 43" fill="none" xmlns="http://www.w3.org/2000/svg">
<g id="&#236;&#130;&#172;&#236;&#167;&#132;">
<rect width="72" height="43" transform="translate(0.5)" fill="white"/>
<path id="Union" fill-rule="evenodd" clip-rule="evenodd" d="M24.9539 12.2335C24.8992 11.9006 25.087 11.5753 25.4027 11.4562C29.9637 9.73508 34.9153 12.1583 36.5001 16.5566C38.0849 12.1583 43.0364 9.73509 47.5974 11.4562C47.9131 11.5753 48.1009 11.9006 48.0462 12.2335C47.2173 17.2812 42.2216 20.4198 37.4001 19.1429L37.4001 21.6922C43.1384 22.0569 47.7318 25.8904 48.2553 31.1018C48.3105 31.6514 47.8573 32.1009 47.3051 32.1009H25.6951C25.1428 32.1009 24.6896 31.6514 24.7448 31.1018C25.2683 25.8904 29.8617 22.0569 35.6001 21.6922V19.1429C30.7786 20.4198 25.7828 17.2812 24.9539 12.2335Z" fill="#1073F4"/>
</g>
</svg>
