<svg width="72" height="43" viewBox="0 0 72 43" fill="none" xmlns="http://www.w3.org/2000/svg">
<g id="&#236;&#130;&#172;&#236;&#167;&#132;">
<rect width="72" height="43" fill="white"/>
<path id="Union" fill-rule="evenodd" clip-rule="evenodd" d="M24.4539 12.2337C24.3992 11.9007 24.587 11.5754 24.9027 11.4563C29.4637 9.73521 34.4153 12.1584 36.0001 16.5567C37.5849 12.1584 42.5364 9.73521 47.0974 11.4563C47.4131 11.5754 47.6009 11.9007 47.5462 12.2337C46.7173 17.2814 41.7216 20.4199 36.9001 19.143L36.9001 21.6923C42.6384 22.057 47.2318 25.8905 47.7553 31.102C47.8105 31.6515 47.3573 32.101 46.8051 32.101H25.1951C24.6428 32.101 24.1896 31.6515 24.2448 31.102C24.7683 25.8905 29.3617 22.057 35.1001 21.6923V19.143C30.2786 20.4199 25.2828 17.2814 24.4539 12.2337Z" fill="#CED4DA"/>
</g>
</svg>
