<svg width="72" height="43" viewBox="0 0 72 43" fill="none" xmlns="http://www.w3.org/2000/svg">
<rect width="72" height="43" fill="white"/>
<path d="M25.6499 31.85H46.3499H25.6499ZM32.5499 16.9H33.6999H32.5499ZM32.5499 21.5H33.6999H32.5499ZM32.5499 26.1H33.6999H32.5499ZM38.2999 16.9H39.4499H38.2999ZM38.2999 21.5H39.4499H38.2999ZM38.2999 26.1H39.4499H38.2999ZM27.9499 31.85V13.45C27.9499 12.84 28.1922 12.255 28.6236 11.8237C29.0549 11.3923 29.6399 11.15 30.2499 11.15H41.7499C42.3599 11.15 42.9449 11.3923 43.3762 11.8237C43.8076 12.255 44.0499 12.84 44.0499 13.45V31.85" fill="#1073F4"/>
<path fill-rule="evenodd" clip-rule="evenodd" d="M30.25 12.3C29.945 12.3 29.6525 12.4212 29.4368 12.6368C29.2212 12.8525 29.1 13.145 29.1 13.45V30.7H42.9V13.45C42.9 13.145 42.7788 12.8525 42.5632 12.6368C42.3475 12.4212 42.055 12.3 41.75 12.3H30.25ZM45.2 30.7V13.45C45.2 12.535 44.8365 11.6575 44.1895 11.0105C43.5425 10.3635 42.665 10 41.75 10H30.25C29.335 10 28.4575 10.3635 27.8105 11.0105C27.1635 11.6575 26.8 12.535 26.8 13.45V30.7H25.65C25.0149 30.7 24.5 31.2149 24.5 31.85C24.5 32.4851 25.0149 33 25.65 33H46.35C46.9851 33 47.5 32.4851 47.5 31.85C47.5 31.2149 46.9851 30.7 46.35 30.7H45.2Z" fill="#1073F4"/>
<path fill-rule="evenodd" clip-rule="evenodd" d="M31.3999 16.9C31.3999 16.2649 31.9148 15.75 32.5499 15.75H33.6999C34.335 15.75 34.8499 16.2649 34.8499 16.9C34.8499 17.5351 34.335 18.05 33.6999 18.05H32.5499C31.9148 18.05 31.3999 17.5351 31.3999 16.9ZM37.1499 16.9C37.1499 16.2649 37.6648 15.75 38.2999 15.75H39.4499C40.085 15.75 40.5999 16.2649 40.5999 16.9C40.5999 17.5351 40.085 18.05 39.4499 18.05H38.2999C37.6648 18.05 37.1499 17.5351 37.1499 16.9ZM31.3999 21.5C31.3999 20.8649 31.9148 20.35 32.5499 20.35H33.6999C34.335 20.35 34.8499 20.8649 34.8499 21.5C34.8499 22.1351 34.335 22.65 33.6999 22.65H32.5499C31.9148 22.65 31.3999 22.1351 31.3999 21.5ZM37.1499 21.5C37.1499 20.8649 37.6648 20.35 38.2999 20.35H39.4499C40.085 20.35 40.5999 20.8649 40.5999 21.5C40.5999 22.1351 40.085 22.65 39.4499 22.65H38.2999C37.6648 22.65 37.1499 22.1351 37.1499 21.5ZM31.3999 26.1C31.3999 25.4649 31.9148 24.95 32.5499 24.95H33.6999C34.335 24.95 34.8499 25.4649 34.8499 26.1C34.8499 26.7351 34.335 27.25 33.6999 27.25H32.5499C31.9148 27.25 31.3999 26.7351 31.3999 26.1ZM37.1499 26.1C37.1499 25.4649 37.6648 24.95 38.2999 24.95H39.4499C40.085 24.95 40.5999 25.4649 40.5999 26.1C40.5999 26.7351 40.085 27.25 39.4499 27.25H38.2999C37.6648 27.25 37.1499 26.7351 37.1499 26.1Z" fill="white"/>
</svg>
