<svg width="72" height="43" viewBox="0 0 72 43" fill="none" xmlns="http://www.w3.org/2000/svg">
<rect width="72" height="43" fill="white"/>
<path d="M28.7268 33C27.6417 33 26.8144 32.7186 26.2447 32.1557C25.6818 31.5928 25.4004 30.7722 25.4004 29.6939V19.4299C25.4004 18.3584 25.6818 17.5412 26.2447 16.9783C26.8144 16.4155 27.6417 16.134 28.7268 16.134H43.2633C44.3483 16.134 45.1757 16.4155 45.7454 16.9783C46.315 17.5412 46.5999 18.3584 46.5999 19.4299V29.6939C46.5999 30.7654 46.315 31.5826 45.7454 32.1455C45.1757 32.7152 44.3483 33 43.2633 33H28.7268ZM27.4858 14.4657C27.5536 13.9707 27.7265 13.5875 28.0045 13.3162C28.2826 13.0382 28.7031 12.8992 29.2659 12.8992H42.7343C43.2972 12.8992 43.7177 13.0382 43.9957 13.3162C44.2738 13.5875 44.4501 13.9707 44.5247 14.4657H27.4858ZM29.5406 11.4445C29.5745 10.9766 29.7305 10.6205 30.0085 10.3764C30.2934 10.1255 30.6833 10 31.1784 10H40.8117C41.3203 10 41.7137 10.1255 41.9917 10.3764C42.2698 10.6205 42.4257 10.9766 42.4597 11.4445H29.5406Z" fill="#1073F4"/>
<path d="M36.0032 28.9316C33.4954 28.9316 31.925 27.2793 31.925 24.5664C31.925 21.877 33.4954 20.1895 36.0032 20.1895C38.5051 20.1895 40.0754 21.877 40.0754 24.5664C40.0754 26.0547 39.6008 27.25 38.7278 27.9707L39.2024 28.6621C39.3196 28.8438 39.3665 28.9785 39.3665 29.1602C39.3665 29.5469 39.0676 29.8223 38.6458 29.8223C38.3586 29.8223 38.1711 29.7168 37.9954 29.4473L37.4797 28.7031C37.0286 28.8555 36.5364 28.9316 36.0032 28.9316ZM36.0032 27.4727C36.22 27.4727 36.4192 27.4434 36.6067 27.3906L36.2024 26.8047C36.0852 26.6289 36.0383 26.4766 36.0383 26.3301C36.0383 25.9492 36.3196 25.6797 36.7004 25.6797C36.9465 25.6797 37.1165 25.7676 37.2629 25.9727L37.6555 26.5059C38.0481 26.0488 38.2708 25.3809 38.2708 24.5664C38.2708 22.791 37.386 21.6484 36.0032 21.6484C34.6145 21.6484 33.7297 22.791 33.7297 24.5664C33.7297 26.3359 34.6145 27.4727 36.0032 27.4727Z" fill="white"/>
</svg>
