<svg width="30" height="32" viewBox="0 0 30 32" fill="none" xmlns="http://www.w3.org/2000/svg">
<g id="Frame 1984083397">
<path id="&#244;&#128;&#175;&#182;" d="M0.582031 16.0195C0.582031 15.8587 0.611654 15.7106 0.670898 15.5752C0.730143 15.4313 0.81901 15.3001 0.9375 15.1816L11.0049 5.33008C11.2334 5.11003 11.5085 5 11.8301 5C12.0501 5 12.2448 5.05078 12.4141 5.15234C12.5918 5.25391 12.7314 5.39355 12.833 5.57129C12.943 5.74056 12.998 5.93522 12.998 6.15527C12.998 6.46842 12.8838 6.74349 12.6553 6.98047L3.41309 16.0195L12.6553 25.0586C12.8838 25.2956 12.998 25.5706 12.998 25.8838C12.998 26.1038 12.943 26.2985 12.833 26.4678C12.7314 26.6455 12.5918 26.7852 12.4141 26.8867C12.2448 26.9883 12.0501 27.0391 11.8301 27.0391C11.5085 27.0391 11.2334 26.9248 11.0049 26.6963L0.9375 16.8574C0.81901 16.7389 0.730143 16.612 0.670898 16.4766C0.611654 16.3327 0.582031 16.1803 0.582031 16.0195Z" fill="#1073F4"/>
</g>
</svg>
