<svg width="43" height="20" viewBox="0 0 43 20" fill="none" xmlns="http://www.w3.org/2000/svg">
<g id="Frame 1984083770">
<path id="&#244;&#128;&#134;&#136;" opacity="0.4" d="M34.4863 14.5508C34.2389 14.5508 34.0176 14.4564 33.8223 14.2676L26.2637 6.5332C26.179 6.44857 26.1139 6.35417 26.0684 6.25C26.0228 6.13932 26 6.02214 26 5.89844C26 5.72917 26.0391 5.57617 26.1172 5.43945C26.1953 5.30273 26.2995 5.19531 26.4297 5.11719C26.5664 5.03906 26.7194 5 26.8887 5C27.1361 5 27.3477 5.08464 27.5234 5.25391L35.0039 12.9004H33.959L41.4395 5.25391C41.6217 5.08464 41.8333 5 42.0742 5C42.2435 5 42.3932 5.03906 42.5234 5.11719C42.6602 5.19531 42.7676 5.30273 42.8457 5.43945C42.9238 5.57617 42.9629 5.72917 42.9629 5.89844C42.9629 6.13932 42.875 6.34766 42.6992 6.52344L35.1406 14.2676C35.056 14.3587 34.9551 14.4303 34.8379 14.4824C34.7272 14.528 34.61 14.5508 34.4863 14.5508Z" fill="#0B52AD"/>
</g>
</svg>
