<svg width="22" height="22" viewBox="0 0 22 22" fill="none" xmlns="http://www.w3.org/2000/svg">
<g id="Frame 1984083697">
<rect width="22" height="22" rx="11" fill="white"/>
<path id="&#244;&#128;&#150;&#152;" d="M10.9948 22C9.48162 22 8.05868 21.7118 6.72598 21.1354C5.40022 20.566 4.23411 19.7778 3.22764 18.7708C2.22117 17.7639 1.42988 16.5972 0.853762 15.2708C0.284587 13.9375 0 12.5139 0 11C0 9.47917 0.284587 8.05556 0.853762 6.72917C1.42988 5.39583 2.22117 4.22569 3.22764 3.21875C4.23411 2.21181 5.40022 1.42361 6.72598 0.854167C8.05868 0.284722 9.48162 0 10.9948 0C12.5149 0 13.9378 0.284722 15.2636 0.854167C16.5963 1.42361 17.7659 2.21181 18.7724 3.21875C19.7788 4.22569 20.5667 5.39583 21.1358 6.72917C21.7119 8.05556 22 9.47917 22 11C22 12.5139 21.7119 13.9375 21.1358 15.2708C20.5667 16.5972 19.7788 17.7639 18.7724 18.7708C17.7659 19.7778 16.5963 20.566 15.2636 21.1354C13.9378 21.7118 12.5149 22 10.9948 22ZM10.9948 16.9271C11.085 16.9271 11.1579 16.8958 11.2134 16.8333C11.2759 16.7639 11.3071 16.6875 11.3071 16.6042V15.6875C11.9041 15.6528 12.4594 15.5313 12.973 15.3229C13.4936 15.1146 13.9136 14.809 14.2328 14.4063C14.5521 14.0035 14.7118 13.4896 14.7118 12.8646C14.7118 12.309 14.5868 11.8611 14.337 11.5208C14.0871 11.1736 13.747 10.9028 13.3166 10.7083C12.8863 10.5069 12.4038 10.3472 11.8694 10.2292L11.3071 10.1042V7.6875C11.6403 7.72917 11.9284 7.82986 12.1713 7.98958C12.4143 8.14931 12.6017 8.375 12.7336 8.66667C12.8307 8.85417 12.9522 9 13.098 9.10417C13.2507 9.20833 13.4311 9.26042 13.6394 9.26042C13.8546 9.26042 14.0489 9.20139 14.2224 9.08333C14.396 8.95833 14.4827 8.77083 14.4827 8.52083C14.4827 8.09028 14.3335 7.70833 14.035 7.375C13.7366 7.04167 13.3478 6.77431 12.8689 6.57292C12.39 6.36458 11.8694 6.23958 11.3071 6.19792V5.27083C11.3071 5.1875 11.2759 5.11458 11.2134 5.05208C11.1579 4.98958 11.085 4.95833 10.9948 4.95833C10.9046 4.95833 10.8282 4.98958 10.7657 5.05208C10.7033 5.11458 10.672 5.1875 10.672 5.27083V6.1875C10.089 6.22222 9.54409 6.35069 9.03739 6.57292C8.53762 6.78819 8.13157 7.09722 7.81921 7.5C7.5138 7.89583 7.3611 8.37847 7.3611 8.94792C7.3611 9.49653 7.48951 9.94792 7.74633 10.3021C8.00315 10.6563 8.34327 10.934 8.76668 11.1354C9.19009 11.3368 9.64821 11.4931 10.141 11.6042L10.672 11.7188V14.2083C10.2764 14.1806 9.94668 14.0903 9.68292 13.9375C9.41915 13.7778 9.21786 13.5347 9.07903 13.2083C8.96798 13.0069 8.84651 12.8576 8.71462 12.7604C8.58274 12.6563 8.41268 12.6042 8.20445 12.6042C7.95457 12.6042 7.74633 12.6736 7.57974 12.8125C7.41316 12.9514 7.32986 13.1493 7.32986 13.4063C7.32986 13.5729 7.37151 13.7535 7.4548 13.9479C7.66304 14.4757 8.05868 14.8924 8.64174 15.1979C9.23174 15.4965 9.9085 15.6632 10.672 15.6979V16.6042C10.672 16.6875 10.7033 16.7639 10.7657 16.8333C10.8282 16.8958 10.9046 16.9271 10.9948 16.9271ZM9.2248 8.78125C9.2248 8.55903 9.28727 8.37153 9.41221 8.21875C9.54409 8.06597 9.71762 7.94792 9.9328 7.86458C10.1549 7.77431 10.4013 7.71181 10.672 7.67708V9.95833L10.5679 9.92708C10.2903 9.85764 10.0508 9.77431 9.8495 9.67708C9.65515 9.57986 9.50245 9.45833 9.39139 9.3125C9.28033 9.16667 9.2248 8.98958 9.2248 8.78125ZM11.3071 14.2188V11.8542L11.4217 11.8854C11.8173 11.9757 12.154 12.1042 12.4316 12.2708C12.7162 12.4375 12.8585 12.7014 12.8585 13.0625C12.8585 13.4375 12.7093 13.7153 12.4108 13.8958C12.1123 14.0764 11.7444 14.184 11.3071 14.2188Z" fill="#FFA800"/>
</g>
</svg>
