<svg width="44" height="44" viewBox="0 0 44 44" fill="none" xmlns="http://www.w3.org/2000/svg">
<g id="&#236;&#149;&#140;&#235;&#166;&#188;-&#234;&#184;&#176;&#235;&#179;&#184;">
<path id="&#244;&#128;&#139;&#154;" d="M14.4347 28.19C13.985 28.19 13.6334 28.0855 13.38 27.8765C13.1267 27.6675 13 27.3888 13 27.0404C13 26.7237 13.0918 26.4165 13.2755 26.1188C13.4592 25.8211 13.6873 25.5297 13.9596 25.2447C14.2383 24.9596 14.5139 24.6746 14.7862 24.3895C14.9952 24.1742 15.1568 23.8923 15.2708 23.5439C15.3911 23.1956 15.4798 22.825 15.5368 22.4323C15.5938 22.0396 15.635 21.6595 15.6603 21.2922C15.6793 20.076 15.8092 18.9929 16.0499 18.0428C16.2906 17.0926 16.6675 16.2945 17.1805 15.6485C17.6999 15.0024 18.3808 14.5273 19.2233 14.2233C19.4006 13.6025 19.7268 13.0768 20.2019 12.6461C20.677 12.2154 21.2629 12 21.9596 12C22.6627 12 23.2518 12.2154 23.7268 12.6461C24.2019 13.0768 24.5281 13.6025 24.7055 14.2233C25.5479 14.5273 26.2257 15.0024 26.7387 15.6485C27.2518 16.2945 27.6287 17.0926 27.8694 18.0428C28.1164 18.9929 28.2494 20.076 28.2684 21.2922C28.2937 21.6595 28.3349 22.0396 28.3919 22.4323C28.4489 22.825 28.5344 23.1956 28.6485 23.5439C28.7688 23.8923 28.9335 24.1742 29.1425 24.3895C29.4149 24.6746 29.6873 24.9596 29.9596 25.2447C30.2383 25.5297 30.4695 25.8211 30.6532 26.1188C30.8369 26.4165 30.9287 26.7237 30.9287 27.0404C30.9287 27.3888 30.8021 27.6675 30.5487 27.8765C30.2953 28.0855 29.9438 28.19 29.4941 28.19H14.4347ZM21.9596 32C21.4276 32 20.9493 31.8828 20.5249 31.6485C20.1006 31.4141 19.7585 31.1069 19.4988 30.7268C19.2391 30.3468 19.0903 29.9351 19.0523 29.4917H24.8765C24.8321 29.9351 24.6801 30.3468 24.4204 30.7268C24.1671 31.1069 23.8282 31.4141 23.4038 31.6485C22.9794 31.8828 22.498 32 21.9596 32Z" fill="#E7F1FE"/>
<circle id="Ellipse 4128" cx="22" cy="22" r="22" fill="white" fill-opacity="0.15"/>
</g>
</svg>
