<svg width="43" height="21" viewBox="0 0 43 21" fill="none" xmlns="http://www.w3.org/2000/svg">
<g id="Frame 1984083770">
<path id="&#244;&#128;&#134;&#136;" opacity="0.4" d="M34.4863 6.44922C34.2389 6.44922 34.0176 6.54362 33.8223 6.73242L26.2637 14.4668C26.179 14.5514 26.1139 14.6458 26.0684 14.75C26.0228 14.8607 26 14.9779 26 15.1016C26 15.2708 26.0391 15.4238 26.1172 15.5605C26.1953 15.6973 26.2995 15.8047 26.4297 15.8828C26.5664 15.9609 26.7194 16 26.8887 16C27.1361 16 27.3477 15.9154 27.5234 15.7461L35.0039 8.09961H33.959L41.4395 15.7461C41.6217 15.9154 41.8333 16 42.0742 16C42.2435 16 42.3932 15.9609 42.5234 15.8828C42.6602 15.8047 42.7676 15.6973 42.8457 15.5605C42.9238 15.4238 42.9629 15.2708 42.9629 15.1016C42.9629 14.8607 42.875 14.6523 42.6992 14.4766L35.1406 6.73242C35.056 6.64128 34.9551 6.56966 34.8379 6.51758C34.7272 6.472 34.61 6.44922 34.4863 6.44922Z" fill="#0B52AD"/>
</g>
</svg>
